<?xml version="1.0" standalone="no"?>
<!DOCTYPE svg PUBLIC "-//W3C//DTD SVG 20010904//EN"
 "http://www.w3.org/TR/2001/REC-SVG-20010904/DTD/svg10.dtd">
<svg version="1.0" xmlns="http://www.w3.org/2000/svg"
 width="100.000000pt" height="100.000000pt" viewBox="0 0 100.000000 100.000000"
 preserveAspectRatio="xMidYMid meet">
<metadata>
Created by potrace 1.16, written by Peter Selinger 2001-2019
</metadata>
<g transform="translate(0.000000,100.000000) scale(0.007675,-0.014265)"
fill="#000000" stroke="none">
<path d="M10440 6905 l0 -105 1185 0 1185 0 0 -2741 0 -2741 -52 30 c-280 156
-994 492 -1017 478 -10 -6 -85 -186 -80 -190 2 -2 49 -23 104 -46 355 -150
854 -398 1054 -524 22 -14 43 -26 45 -26 2 0 17 20 33 45 27 43 30 45 76 45
l47 0 0 2940 0 2940 -1290 0 -1290 0 0 -105z"/>
<path d="M0 3775 l0 -2905 53 0 c52 0 54 -1 76 -40 12 -22 25 -40 28 -40 3 0
90 47 192 104 280 156 551 298 791 413 118 56 215 106 215 110 0 20 -80 183
-90 183 -18 0 -677 -331 -873 -438 l-182 -100 0 2704 0 2704 1180 0 1180 0 0
105 0 105 -1285 0 -1285 0 0 -2905z"/>
<path d="M2860 6284 c-894 -34 -1653 -63 -1687 -63 l-63 -1 0 -440 0 -440 615
0 615 0 0 -1410 c0 -1053 3 -1410 11 -1410 7 0 254 78 550 173 l539 172 0
1343 0 1342 625 0 625 0 0 400 0 400 -102 -1 c-57 -1 -834 -30 -1728 -65z"/>
<path d="M7810 5493 c-209 -14 -437 -45 -555 -74 -44 -11 -127 -43 -185 -71
-90 -43 -117 -62 -185 -132 -57 -57 -91 -101 -113 -148 -162 -334 16 -753 370
-872 25 -8 173 -33 327 -56 802 -115 1159 -238 1109 -381 -43 -123 -248 -167
-527 -114 -173 33 -460 129 -650 216 l-84 39 -363 0 -364 0 0 -52 c0 -74 25
-183 56 -245 118 -242 481 -391 1089 -448 398 -37 949 -47 1082 -19 253 52
430 207 499 439 29 95 25 267 -9 370 -63 193 -183 328 -372 420 -104 51 -130
58 -488 125 -589 111 -906 203 -1016 296 -81 68 -73 125 28 192 117 78 227
107 381 100 172 -9 359 -83 548 -218 l83 -60 360 0 359 0 0 58 c-1 205 -150
403 -383 506 -237 105 -627 155 -997 129z"/>
<path d="M5308 5434 c-5 -4 -1444 -84 -1530 -84 l-28 0 0 -1225 0 -1225 23 5
c12 2 168 27 347 55 179 28 337 53 353 56 l27 6 0 424 0 424 248 -1 247 0 269
-358 269 -358 41 4 c58 5 822 53 852 53 13 0 24 3 24 8 0 4 -155 192 -344 417
l-344 410 57 13 c100 22 218 89 297 167 80 79 115 134 150 233 71 205 42 514
-64 678 -134 206 -372 304 -737 304 -83 0 -154 -3 -157 -6z m-17 -555 c134
-92 199 -171 199 -241 0 -74 -42 -122 -150 -172 l-55 -26 -362 0 -363 0 0 245
0 245 328 0 328 0 75 -51z"/>
<path d="M9535 5268 c5 -132 55 -2295 55 -2355 0 -9 16 -13 45 -13 126 0 487
-68 870 -165 372 -94 711 -192 1313 -381 l42 -13 0 334 0 335 -27 7 c-16 3
-359 86 -763 183 l-735 177 -3 1032 -2 1031 -400 0 -401 0 6 -172z"/>
<path d="M6070 2809 c-211 -11 -494 -35 -738 -61 -172 -19 -201 -24 -198 -37
3 -9 8 -56 12 -105 l7 -89 66 6 c36 4 152 15 256 26 455 49 619 56 1285 56
438 0 699 -4 843 -14 114 -8 209 -12 212 -10 2 3 7 50 11 105 l7 101 -104 7
c-326 21 -505 25 -979 24 -289 0 -595 -5 -680 -9z"/>
<path d="M8482 2623 c-17 -112 -16 -123 11 -123 12 0 144 -20 292 -45 727
-119 1372 -280 2070 -515 99 -33 184 -60 190 -60 11 0 65 152 65 183 0 12 -60
36 -257 101 -672 221 -1360 387 -2078 501 -121 19 -234 35 -251 35 -30 0 -31
0 -42 -77z"/>
<path d="M4205 2575 c-723 -148 -1383 -341 -2090 -610 -126 -48 -231 -88 -232
-89 -6 -5 72 -196 80 -196 5 0 115 41 245 91 643 247 1359 455 2035 590 144
29 264 54 266 56 2 2 -4 48 -14 103 l-18 100 -31 -1 c-17 0 -125 -20 -241 -44z"/>
<path d="M6190 1960 c0 -89 1 -89 79 -74 29 6 31 9 31 49 0 23 -3 57 -6 74 -6
30 -9 31 -55 31 l-49 0 0 -80z"/>
<path d="M6432 1824 c-21 -9 -33 -22 -40 -46 -5 -19 -6 -140 -3 -280 6 -229 8
-249 27 -275 27 -36 74 -50 119 -35 l35 10 0 -43 c0 -23 3 -57 6 -74 5 -24 3
-31 -10 -31 -9 0 -16 -7 -16 -15 0 -12 16 -15 80 -15 73 0 80 2 80 20 0 11 -6
20 -14 20 -11 0 -15 46 -20 248 -3 136 -9 304 -12 375 -5 112 -4 127 10 127 9
0 16 7 16 15 0 12 -20 14 -114 13 -67 0 -125 -6 -144 -14z m114 -32 c8 -5 14
-99 19 -284 l7 -276 -22 -7 c-45 -14 -48 3 -56 286 -3 147 -4 272 0 278 8 12
35 14 52 3z"/>
<path d="M6710 1825 c0 -8 7 -15 16 -15 13 0 14 -29 8 -262 -6 -228 -5 -268 9
-301 9 -21 26 -41 40 -46 13 -5 76 -9 140 -10 110 -1 117 1 117 19 0 12 -7 20
-17 20 -15 0 -15 25 -9 305 l7 305 -70 0 c-56 0 -71 -3 -71 -15 0 -8 7 -15 15
-15 13 0 15 -38 15 -285 l0 -286 -22 -8 c-47 -18 -48 -8 -48 310 l0 299 -65 0
c-51 0 -65 -3 -65 -15z"/>
<path d="M7149 1817 c-60 -40 -65 -62 -73 -311 -8 -251 -5 -270 57 -303 42
-22 126 -22 160 0 40 26 55 56 63 125 l7 62 -57 0 -56 0 0 -66 c0 -73 -12
-104 -39 -104 -36 0 -40 21 -34 153 l6 127 87 -7 87 -6 6 69 c12 123 8 186
-12 220 -38 63 -139 83 -202 41z m106 -24 c13 -13 16 -27 11 -61 -3 -25 -6
-80 -6 -123 l0 -79 -41 0 -42 0 7 38 c3 20 6 76 6 124 0 65 4 90 16 102 20 20
29 20 49 -1z"/>
<path d="M6213 1823 c-29 -3 -43 -9 -43 -19 0 -8 7 -14 15 -14 8 0 15 -8 15
-17 0 -29 19 -392 25 -480 5 -71 4 -83 -9 -83 -9 0 -16 -7 -16 -15 0 -12 16
-15 80 -15 73 0 80 2 80 20 0 11 -7 20 -15 20 -11 0 -15 11 -15 38 0 63 -21
485 -26 530 -4 36 -8 42 -27 40 -12 -1 -41 -3 -64 -5z"/>
<path d="M5967 1814 c-6 -7 -22 -8 -119 -12 -35 -1 -48 -6 -48 -17 0 -8 6 -15
14 -15 19 0 22 -25 42 -318 15 -220 16 -255 3 -263 -42 -27 -43 -23 -76 292
-17 165 -33 302 -35 304 -2 2 -30 0 -63 -3 -46 -5 -61 -11 -63 -24 -2 -11 3
-18 12 -18 9 0 16 -3 16 -7 0 -14 49 -478 55 -515 4 -31 1 -39 -16 -49 -41
-22 -47 0 -80 306 -16 159 -31 291 -33 292 -1 1 -33 0 -70 -4 -54 -5 -66 -9
-64 -22 2 -9 11 -16 19 -15 13 1 20 -44 43 -264 16 -157 33 -277 42 -293 16
-31 73 -55 107 -44 24 7 136 22 232 31 103 9 125 14 125 29 0 8 -7 15 -15 15
-8 0 -15 4 -15 10 0 5 -9 130 -20 276 -19 243 -20 269 -5 283 12 12 19 13 33
5 15 -10 20 -52 39 -304 13 -161 25 -295 27 -297 2 -2 31 -1 65 3 42 4 61 11
61 20 0 8 -7 14 -15 14 -10 0 -15 10 -15 27 0 39 -29 431 -36 482 -8 61 -48
101 -102 101 -21 0 -42 -3 -45 -6z"/>
<path d="M7682 1783 c-41 -20 -58 -52 -65 -125 -5 -50 -3 -58 11 -58 9 0 33
-3 53 -6 l36 -6 8 78 c8 90 17 109 47 93 18 -10 19 -18 13 -87 -3 -42 -8 -94
-11 -114 l-6 -38 -53 0 c-96 0 -119 -36 -131 -207 l-7 -102 32 -31 c27 -27 37
-31 83 -30 29 0 83 -2 121 -6 58 -6 67 -5 67 10 0 9 -7 16 -15 16 -8 0 -15 3
-15 8 0 4 9 125 22 269 l22 263 -20 27 c-43 58 -127 79 -192 46z m84 -330 c-3
-21 -8 -76 -11 -123 -8 -114 -13 -137 -32 -145 -36 -13 -42 14 -32 140 12 143
19 165 55 165 24 0 25 -2 20 -37z"/>
<path d="M8008 1754 c-43 -23 -60 -67 -62 -158 l-1 -81 61 -80 c34 -44 65 -89
68 -101 9 -30 -10 -155 -27 -171 -12 -12 -17 -12 -31 3 -13 12 -16 27 -12 55
3 22 9 57 12 79 6 40 6 40 -28 40 -18 0 -43 3 -54 6 -19 5 -22 0 -28 -56 -6
-50 -4 -68 11 -97 51 -98 208 -96 249 3 8 20 16 69 17 109 2 72 1 75 -41 132
-100 137 -95 125 -87 202 8 78 23 108 50 97 16 -6 17 -15 10 -88 -8 -91 -4
-98 56 -98 41 0 49 13 49 88 0 83 -52 132 -137 132 -26 -1 -60 -7 -75 -16z"/>
<path d="M5035 1700 c-11 -4 -31 -20 -45 -35 -22 -24 -25 -35 -24 -100 2 -100
22 -137 109 -202 38 -29 77 -61 86 -72 17 -21 44 -164 34 -181 -3 -5 -15 -10
-26 -10 -24 0 -36 28 -45 109 l-6 60 -32 -5 c-82 -14 -78 -10 -70 -62 13 -89
48 -129 123 -139 50 -7 121 26 142 64 23 44 8 192 -24 232 -7 8 -45 39 -85 69
-82 60 -97 85 -108 180 -5 52 -4 63 10 68 28 11 43 -14 56 -92 l12 -76 46 7
c26 4 49 8 51 10 2 2 0 30 -4 62 -6 46 -13 63 -40 90 -29 29 -39 33 -86 32
-30 0 -63 -4 -74 -9z"/>
<path d="M8460 1695 c0 -7 6 -18 14 -22 12 -7 7 -46 -25 -238 -47 -277 -48
-317 -14 -350 19 -20 34 -25 75 -25 27 0 50 -4 50 -8 0 -27 -23 -129 -32 -139
-7 -9 -15 -10 -30 -2 -18 10 -20 18 -14 64 3 30 3 56 -1 58 -5 3 -29 8 -55 11
l-48 7 0 -42 c0 -87 69 -145 162 -137 55 6 92 33 107 82 13 38 123 697 118
702 -4 5 -105 24 -123 24 -18 0 -18 -20 0 -34 12 -9 8 -49 -29 -270 -24 -142
-46 -265 -49 -273 -7 -18 -45 -16 -53 3 -4 12 53 391 84 555 5 26 3 27 -59 38
-81 14 -78 14 -78 -4z"/>
<path d="M4703 1641 c-58 -27 -77 -67 -69 -145 3 -33 9 -63 14 -67 4 -4 29 -3
56 3 47 10 48 11 42 41 -4 17 -9 55 -12 84 -6 44 -4 54 10 59 10 4 22 2 28 -4
13 -13 50 -202 43 -219 -2 -7 -14 -13 -25 -13 -26 0 -57 -16 -87 -43 -18 -16
-23 -31 -23 -73 0 -59 24 -187 41 -220 21 -40 81 -55 136 -33 15 6 39 13 53
14 84 8 110 17 110 37 0 13 -5 18 -14 15 -19 -8 -17 -14 -66 257 -23 125 -45
238 -50 250 -25 66 -111 92 -187 57z m136 -343 c42 -213 44 -231 25 -245 -30
-22 -42 3 -68 137 -25 131 -22 160 14 160 15 0 21 -11 29 -52z"/>
<path d="M8881 1617 c-47 -24 -60 -58 -101 -261 -42 -212 -47 -260 -28 -301
18 -40 74 -69 134 -69 58 0 96 20 118 62 15 29 96 420 96 462 0 38 -33 85 -73
103 -41 20 -112 22 -146 4z m113 -33 c9 -9 14 -25 11 -37 -3 -12 -28 -132 -55
-266 -28 -134 -53 -247 -56 -252 -8 -14 -40 -10 -54 6 -11 13 -3 63 40 278 28
144 57 268 62 275 14 16 33 15 52 -4z"/>
<path d="M3551 1594 c-24 -8 -46 -15 -48 -18 -6 -5 36 -146 43 -146 24 0 94
25 94 33 0 17 -32 131 -39 138 -3 3 -26 0 -50 -7z"/>
<path d="M9160 1569 c0 -7 6 -17 13 -23 12 -9 4 -54 -44 -256 -32 -135 -59
-261 -59 -281 0 -22 8 -43 20 -57 22 -23 94 -47 111 -37 5 4 15 2 22 -3 23
-18 118 -35 130 -23 8 8 7 14 -5 23 -15 12 -11 39 52 303 38 160 65 293 62
296 -7 6 -105 29 -123 29 -14 0 -11 -27 5 -33 11 -5 8 -31 -19 -144 -18 -76
-47 -200 -65 -276 -32 -136 -33 -138 -59 -135 -17 2 -27 10 -29 24 -2 11 25
137 58 280 34 142 62 268 63 278 2 15 -9 22 -53 32 -69 16 -80 17 -80 3z"/>
<path d="M4215 1547 c-11 -8 -53 -20 -92 -27 -40 -7 -73 -16 -73 -19 1 -16 19
-33 29 -27 6 4 13 -3 16 -16 113 -478 124 -533 107 -546 -12 -9 -13 -15 -5
-23 17 -17 165 20 161 40 -2 9 -11 15 -19 14 -12 -2 -28 55 -79 273 -61 267
-63 277 -45 290 25 18 32 18 43 -3 6 -10 38 -139 72 -288 34 -148 65 -275 69
-280 4 -8 26 -6 69 3 49 11 62 18 60 30 -2 10 -11 16 -19 15 -12 -2 -27 51
-73 250 -61 262 -73 299 -105 317 -28 14 -93 13 -116 -3z"/>
<path d="M3177 1478 c-33 -11 -56 -25 -54 -31 2 -7 12 -11 20 -11 13 1 24 -20
42 -80 15 -44 69 -216 122 -380 64 -199 92 -301 85 -304 -16 -5 -15 -32 0 -32
6 0 42 10 80 22 52 17 68 26 68 41 0 13 -5 17 -18 13 -15 -5 -29 29 -104 262
-84 262 -85 267 -67 287 17 17 21 18 34 4 8 -8 54 -136 101 -284 47 -149 89
-273 92 -277 12 -12 292 73 292 89 0 7 -8 13 -18 13 -15 0 -32 50 -102 291
-46 160 -87 292 -90 293 -3 1 -33 -6 -67 -17 -64 -19 -79 -35 -43 -44 21 -6
17 6 121 -347 32 -110 56 -203 54 -207 -3 -4 -16 -9 -30 -11 -24 -5 -26 -1
-100 231 -93 288 -93 288 -119 306 -27 19 -89 19 -127 0 -23 -13 -30 -13 -34
-3 -3 7 -17 53 -33 102 -15 49 -32 91 -37 92 -6 1 -36 -7 -68 -18z"/>
<path d="M3823 1440 c-38 -23 -63 -67 -63 -110 0 -37 104 -431 121 -459 20
-31 64 -51 114 -51 86 0 145 51 145 126 0 40 -86 382 -112 448 -25 63 -137 88
-205 46z m84 -22 c11 -14 143 -504 143 -531 0 -20 -32 -38 -49 -27 -12 7 -151
501 -151 535 0 13 26 34 41 35 4 0 11 -6 16 -12z"/>
<path d="M9733 1400 c-25 -15 -36 -33 -52 -82 l-19 -63 26 -11 c76 -32 78 -31
98 48 20 76 36 101 59 92 21 -8 19 -30 -12 -140 l-27 -95 -53 7 c-64 8 -108
-8 -128 -46 -7 -14 -26 -68 -40 -119 -39 -136 -25 -180 66 -197 18 -4 62 -15
97 -26 34 -11 69 -17 77 -14 8 3 15 1 15 -3 0 -5 30 -19 68 -32 37 -12 73 -24
80 -27 7 -2 12 4 12 16 0 11 -6 22 -12 24 -9 3 12 81 72 268 84 259 104 300
130 274 9 -9 5 -33 -13 -91 l-24 -80 50 -16 c28 -9 51 -15 52 -14 11 24 35
122 35 146 0 38 -35 77 -77 86 -15 4 -62 17 -103 30 -55 17 -77 20 -82 12 -4
-7 -1 -17 6 -23 12 -8 0 -56 -72 -283 l-87 -272 -29 6 c-16 3 -31 6 -32 8 -2
1 28 110 66 242 38 132 70 256 70 276 0 94 -129 153 -217 99z m52 -290 c8 -13
-65 -273 -79 -282 -18 -12 -36 -9 -43 8 -5 14 50 228 69 267 9 18 43 23 53 7z"/>
<path d="M10374 1201 c-35 -21 -39 -29 -130 -289 -66 -188 -69 -229 -21 -277
59 -59 165 -67 211 -16 16 18 60 121 54 126 -2 1 -25 9 -51 18 l-48 16 -10
-27 c-49 -132 -55 -140 -88 -122 -12 6 -21 15 -21 21 0 10 79 241 85 247 1 1
39 -11 85 -28 46 -17 84 -29 85 -28 14 20 75 219 75 245 0 102 -135 170 -226
114z m135 -35 c9 -10 2 -41 -30 -132 -23 -66 -43 -121 -45 -123 -5 -5 -64 20
-64 27 0 13 74 218 83 230 13 16 42 15 56 -2z"/>
<path d="M2403 1180 c-64 -39 -81 -117 -44 -200 13 -28 17 -48 11 -54 -17 -17
-11 -39 8 -34 16 5 37 -35 136 -254 97 -213 115 -262 105 -274 -8 -9 -9 -18
-3 -24 15 -15 156 50 151 70 -1 8 -10 14 -18 12 -12 -1 -47 67 -134 259 -106
231 -117 262 -102 270 9 6 17 17 17 26 0 11 -6 14 -25 9 -24 -6 -28 -2 -55 58
-37 80 -38 103 -6 117 14 7 22 17 19 25 -7 19 -22 17 -60 -6z"/>
<path d="M2995 1186 c-73 -32 -93 -109 -55 -206 29 -73 47 -91 139 -134 93
-43 112 -62 140 -139 25 -69 26 -93 5 -101 -25 -10 -38 7 -64 81 -13 37 -24
70 -26 72 -2 2 -88 -26 -101 -34 -5 -3 32 -92 47 -114 8 -12 34 -28 58 -37 82
-27 173 21 187 100 8 38 -20 134 -53 184 -8 13 -59 45 -112 72 -87 44 -99 53
-117 92 -49 105 -51 145 -7 136 13 -2 26 -25 43 -73 13 -39 26 -72 27 -74 5
-5 94 20 99 29 9 15 -34 106 -64 132 -35 32 -93 37 -146 14z"/>
<path d="M2684 1066 c-44 -19 -74 -62 -74 -105 0 -45 30 -131 46 -131 23 0 84
31 84 43 0 6 -12 40 -26 74 -29 68 -27 96 8 91 18 -2 30 -23 64 -108 l42 -104
-37 -17 c-51 -22 -81 -63 -81 -108 0 -50 65 -210 96 -239 31 -27 87 -29 129
-4 17 10 58 29 93 41 47 18 62 28 62 43 0 14 -5 18 -18 14 -16 -5 -30 22 -97
191 -106 268 -122 301 -156 318 -35 18 -94 19 -135 1z m214 -416 c47 -118 51
-135 38 -148 -8 -8 -21 -12 -28 -9 -8 3 -38 62 -67 132 -50 122 -51 128 -35
146 10 11 22 18 28 16 6 -2 35 -63 64 -137z"/>
</g>
</svg>
